:SAMPLES-PER-SECOND 30
:FULLY-SPECIFIED
:DEGREES
184
root  -17.2533 34.8148 -13.0647 -176.546 -11.0119 178.433
RightUpLeg  -3.46477 -20.0907 -4.04004
RightLeg  7.61597 -8.75978 -0.596883
RightFoot  3.59462 0.0290907 -0.355081
RightToes  -25.0521 -0.110543 -0.215051
Spine  -2.55476 2.13848 -0.764388
Spine1  -4.63024 4.61907 -1.01153
HEad  -64.8962 -3.16789 7.84264
LeftShoulder1  -1.94126e-019 -3.10601e-018 -2.51263e-017
LeftArm  3.87441 -13.5443 -74.6833
LeftForeArm  167.081 -53.8789 -165.857
LeftHand  -1.1881 -2.14016 18.4206
RightShoulder  -4.96962e-017 0 -2.36833e-017
RightArm  8.46973 13.2283 81.2311
RightForeArm  -172.445 63.6315 161.798
RightHand  -0.433679 -3.90662 -33.3404
LeftUpLeg  -7.54289 -7.7217 2.58839
LeftLeg  8.41897 10.3886 0.854938
LeftFoot  8.04333 -0.10512 1.65662
LeftToes  -25.447 1.7763e-006 6.54387e-008
185
root  -17.2714 34.8136 -13.0037 -176.702 -9.6507 178.603
RightUpLeg  -3.61947 -19.5139 -3.90029
RightLeg  7.46663 -8.00515 -0.524953
RightFoot  3.85715 0.0312112 -0.355979
RightToes  -25.2444 -0.112078 -0.216946
Spine  -2.5017 1.87135 -0.706252
Spine1  -4.51885 4.06556 -0.864456
HEad  -64.7586 -3.20077 7.7888
LeftShoulder1  -1.94126e-019 -3.10601e-018 -2.51263e-017
LeftArm  1.55382 -13.7583 -74.4574
LeftForeArm  165.669 -53.8857 -165.747
LeftHand  -1.1561 -1.22977 20.3101
RightShoulder  -4.96962e-017 0 -2.36833e-017
RightArm  3.29544 12.4425 79.3111
RightForeArm  -177.239 63.4355 161.493
RightHand  0.473259 -6.77187 -37.6727
LeftUpLeg  -7.46912 -7.12952 2.67135
LeftLeg  8.81678 11.1216 0.991831
LeftFoot  7.7965 -0.105925 1.71592
LeftToes  -25.235 1.7763e-006 6.54387e-008
186
root  -17.2892 34.8199 -12.9539 -176.749 -8.33554 178.739
RightUpLeg  -3.79518 -18.8444 -3.74647
RightLeg  7.20951 -7.34291 -0.448791
RightFoot  4.22187 0.0340238 -0.357519
RightToes  -25.4544 -0.113905 -0.219165
Spine  -2.52563 1.56824 -0.692243
Spine1  -4.57906 3.43726 -0.786058
HEad  -64.0766 -3.41679 7.48141
LeftShoulder1  -1.94126e-019 -3.10601e-018 -2.51263e-017
LeftArm  3.99363 -15.0279 -76.1484
LeftForeArm  164.345 -55.5379 -164.798
LeftHand  -1.09215 -0.961647 19.9964
RightShoulder  -4.96962e-017 0 -2.36833e-017
RightArm  3.72363 12.7466 79.7225
RightForeArm  178.282 64.2592 160.386
RightHand  0.948271 -8.00562 -39.8503
LeftUpLeg  -7.37737 -6.32749 2.74248
LeftLeg  8.99808 11.6298 1.0734
LeftFoot  7.57136 -0.105601 1.74549
LeftToes  -24.8344 1.7763e-006 6.54387e-008
187
root  -17.2979 34.8314 -12.9084 -176.786 -6.79843 178.837
RightUpLeg  -3.98342 -18.4838 -3.65312
RightLeg  6.91701 -6.17288 -0.345998
RightFoot  4.60818 0.0351461 -0.313282
RightToes  -26.1158 -0.118109 -0.224084
Spine  -2.54341 1.22738 -0.648408
Spine1  -4.64771 2.72907 -0.636332
HEad  -63.3713 -3.38609 6.86998
LeftShoulder1  -1.94126e-019 -3.10601e-018 -2.51263e-017
LeftArm  12.0316 -17.0487 -78.3162
LeftForeArm  164.879 -59.2231 -162.678
LeftHand  -1.17803 -2.17541 18.1865
RightShoulder  -4.96962e-017 0 -2.36833e-017
RightArm  11.0118 14.107 80.8723
RightForeArm  -177.965 65.5236 159.674
RightHand  0.503832 -6.90152 -36.838
LeftUpLeg  -7.12914 -4.87599 2.80265
LeftLeg  8.9239 11.718 1.06626
LeftFoot  7.50253 -0.103848 1.74887
LeftToes  -25.1404 1.7763e-006 6.54387e-008
188
root  -17.3017 34.8376 -12.8798 -176.854 -4.97812 178.915
RightUpLeg  -4.14602 -18.5912 -3.6091
RightLeg  6.62188 -4.22612 -0.215135
RightFoot  4.99473 0.0323381 -0.190739
RightToes  -27.456 -0.126801 -0.233901
Spine  -2.49698 0.932131 -0.596908
Spine1  -4.61315 2.11171 -0.48625
HEad  -62.9336 -2.98823 6.21171
LeftShoulder1  -1.94126e-019 -3.10601e-018 -2.51263e-017
LeftArm  19.2025 -18.8013 -80.2373
LeftForeArm  160.606 -62.6012 -159.838
LeftHand  -1.16018 -0.836023 21.6231
RightShoulder  -4.96962e-017 0 -2.36833e-017
RightArm  18.5261 15.1076 81.7539
RightForeArm  -176.324 66.1074 159.315
RightHand  1.44078 -9.21551 -41.3029
LeftUpLeg  -6.77328 -2.87415 2.8652
LeftLeg  8.84272 11.5181 1.03198
LeftFoot  7.30276 -0.0971903 1.68446
LeftToes  -25.1645 1.7763e-006 6.54387e-008
189
root  -17.2929 34.8389 -12.8313 -176.909 -2.85794 179.033
RightUpLeg  -4.49305 -17.8894 -3.41947
RightLeg  6.46914 -2.92488 -0.140891
RightFoot  5.26854 0.0296366 -0.0995989
RightToes  -28.5005 -0.133733 -0.24141
Spine  -2.29725 0.729631 -0.539252
Spine1  -4.22066 1.68474 -0.356425
HEad  -63.6938 -2.53592 5.96197
LeftShoulder1  -1.94126e-019 -3.10601e-018 -2.51263e-017
LeftArm  16.091 -17.3027 -80.1529
LeftForeArm  167.208 -61.1881 -161.562
LeftHand  -1.3522 -3.79657 17.2548
RightShoulder  -4.96962e-017 0 -2.36833e-017
RightArm  13.3852 13.1136 81.5084
RightForeArm  -172.515 65.1894 160.529
RightHand  -0.120528 -4.99344 -35.8008
LeftUpLeg  -6.47455 -1.29615 2.98178
LeftLeg  8.9268 12.0342 1.09525
LeftFoot  7.01371 -0.0937379 1.69106
LeftToes  -25.085 1.7763e-006 6.54387e-008
